# Blender v2.91.2 OBJ File: 'camionnete01.blend'
# www.blender.org
mtllib camionnete_porte2.mtl
o Cube.003
v -0.734665 5.981419 -10.865334
v -0.807215 5.891793 -10.878999
v 0.640595 1.006420 1.198723
v -0.532455 6.715159 -0.110511
v -1.335390 6.717539 -0.105898
v -6.380429 6.713303 -0.101394
v -6.418206 -3.064414 1.237577
v -1.047084 -3.060066 1.238316
v -6.422375 6.204472 0.436394
v -0.631016 6.198907 0.438023
v -1.317725 6.202416 0.439384
v -0.065569 6.089684 0.119468
v 0.937407 1.238024 0.867922
v -0.287388 6.568901 -0.383834
v -6.418206 -6.057597 1.255360
v 0.250992 0.993623 1.250800
v -0.693003 6.717539 -0.105898
v 0.555599 -3.064414 1.237577
v 0.547501 0.066827 1.808052
v -0.771047 6.199315 0.441464
v -6.419849 6.179307 0.266847
v -6.419849 0.971047 1.064648
v -1.047084 -3.061871 1.058182
v -1.064968 -0.998681 1.791480
v 0.542269 -0.990285 1.790126
v -1.180859 0.033327 1.620096
v -6.420395 0.032927 1.618497
v -6.374175 -0.990285 1.790126
v -1.304791 0.974417 1.062438
v -6.418206 -3.061663 1.058973
v 0.555599 -3.061663 1.058973
v -1.318426 6.179673 0.266043
v 0.230699 0.980603 1.062272
v 0.528589 0.033512 1.622311
v -0.775136 6.177339 0.266399
v -1.047084 -1.491667 1.622420
v -6.418206 -1.490119 1.622978
v 0.555599 -1.490119 1.622978
v -6.270391 6.075022 0.276624
v -6.270391 1.089677 1.036646
v -1.361419 1.090181 1.037352
v -1.373067 6.074669 0.277461
v 0.106858 1.094994 1.036618
v -0.851710 6.072431 0.277802
v -6.267865 6.052161 0.090654
v -6.267865 1.079645 0.848720
v -1.362120 1.077966 0.848193
v -1.373768 6.052832 0.089770
v 0.099332 1.079645 0.848720
v -0.854394 6.052161 0.090654
v -6.418206 -4.133429 1.240532
v 0.555599 -4.133429 1.240532
v -1.047084 -4.129838 1.240532
v 0.555599 -6.057597 1.255360
v -1.047084 -6.065474 1.251653
v 0.341715 0.872865 2.030934
v 0.627847 0.885238 1.983208
v 0.560567 0.181910 2.439601
v -6.374175 -1.587656 1.587796
v 0.542957 -1.587656 1.587796
v -1.062779 -1.588404 1.587526
v -1.062779 -1.023164 1.791413
v -6.374175 -1.027009 1.790026
v 0.542957 -1.027009 1.790026
v -0.580024 5.979769 0.475320
v -0.019514 5.877172 0.159038
v -0.725099 5.980787 0.478938
v -0.727747 5.964496 0.298848
v -0.806239 5.868177 0.308941
v -6.227649 5.872749 0.114875
v -1.391408 5.871257 0.115103
v -0.813295 5.848675 0.120893
v 0.537380 1.428602 1.128625
v 0.858933 1.630963 0.805710
v -6.227649 1.464554 0.786911
v 0.165586 1.425942 1.172830
v 0.159656 1.411918 0.992895
v 0.045426 1.498939 0.975036
v -1.377710 1.467762 0.786421
v 0.027654 1.481704 0.786643
v -0.359037 4.113756 0.762536
v -0.364399 4.098456 0.584076
v -0.456767 4.077271 0.581184
v -0.461164 4.073644 0.393845
v -0.121142 4.114450 0.741869
v 0.333287 4.153579 0.424115
v 0.285250 2.457128 0.979874
v 0.659132 2.580770 0.663539
v -0.034318 2.454708 1.015225
v -0.041219 2.440472 0.836838
v -0.146511 2.485590 0.823837
v -0.146675 2.460245 0.639810
v -0.348033 4.057302 0.771142
v -0.353395 4.042003 0.592683
v -0.446217 4.023146 0.589435
v -0.445338 3.992457 0.406223
v -0.107221 4.057997 0.749961
v 0.349578 4.074564 0.436161
v 0.274740 2.499746 0.973765
v 0.646833 2.640421 0.654445
v -0.042625 2.497327 1.008727
v -0.049527 2.483091 0.830341
v -0.154476 2.526451 0.817608
v -0.158622 2.521536 0.630466
v -6.374175 -1.624351 1.574560
v 0.542957 -1.624351 1.574560
v -1.062779 -1.612868 1.578702
v -6.418206 -3.003556 1.077068
v 0.555599 -3.003556 1.077068
v -1.047084 -3.009151 1.075049
v -6.418206 -6.085943 2.152894
v 0.542957 -6.089104 2.145479
v -1.047084 -6.086733 2.156601
v -6.418206 -6.094110 2.417216
v -6.374175 -6.587495 2.417216
v 0.555599 -6.094110 2.417216
v -1.047084 -6.092858 2.417216
v -1.062779 -6.591579 2.417216
v 0.542957 -6.587495 2.417216
v -6.418206 -5.894618 2.171713
v 0.542957 -5.891457 2.173708
v -1.047084 -5.893828 2.170715
v -6.418206 -5.894618 2.413225
v 0.555599 -5.894618 2.413225
v -1.047084 -5.893828 2.414223
vt 0.375000 0.250000
vt 0.375000 0.250000
vt 0.375000 0.447610
vt 0.375000 0.447610
vt 0.375000 0.250000
vt 0.375000 0.250000
vt 0.629939 0.393728
vt 0.578987 0.393284
vt 0.588163 0.657247
vt 0.639857 0.652955
vt 0.910809 0.842448
vt 0.910809 0.575765
vt 0.857985 0.575765
vt 0.857985 0.849246
vt 0.965811 0.836297
vt 0.965811 0.575765
vt 0.857985 0.927764
vt 0.910809 0.926339
vt 0.965811 0.911038
vt 0.598298 0.737046
vt 0.648719 0.728043
vt 0.489346 0.391905
vt 0.486475 0.662604
vt 0.483953 0.758635
vt 0.441781 0.659161
vt 0.431489 0.723127
vt 1.000000 0.273481
vt 0.924178 0.273481
vt 0.924178 0.351999
vt 1.000000 0.351999
vt 1.000000 0.000000
vt 0.924178 0.000000
vt 0.448388 0.391207
vt 0.411620 0.657935
vt 0.387261 0.658512
vt 0.396346 0.738503
vt 0.415463 0.718908
vt 0.415218 0.391741
vt 0.391108 0.391964
vt 0.420718 0.711372
vt 0.421406 0.657964
vt 0.437743 0.391407
vt 0.424294 0.391638
vt 0.433877 0.658578
vt 0.426542 0.712882
vt 0.690571 0.677118
vt 0.701545 0.678840
vt 0.701768 0.667579
vt 0.690761 0.667499
vt 0.690520 0.679669
vt 0.696674 0.691270
vt 0.707035 0.686768
vt 0.701486 0.681825
vt 0.703800 0.565001
vt 0.692793 0.564920
vt 0.587314 0.749956
vt 0.583974 0.748544
vt 0.585209 0.770101
vt 0.588549 0.771513
vt 0.973105 0.585434
vt 0.969491 0.585431
vt 0.969491 0.616351
vt 0.973105 0.616355
vt 0.716874 0.965272
vt 0.706191 0.961149
vt 0.706230 0.964771
vt 0.717067 0.969183
vt 0.719571 0.969670
vt 0.719571 0.965797
vt 0.396406 0.773440
vt 0.392793 0.773441
vt 0.392793 0.783064
vt 0.396406 0.783063
vt 0.770001 0.000050
vt 0.769284 0.000051
vt 0.769284 0.107756
vt 0.770001 0.107755
vt 0.617609 0.575573
vt 0.619703 0.573219
vt 0.619703 0.544998
vt 0.617609 0.546138
vt 0.769284 0.138679
vt 0.770001 0.138677
vt 0.969491 0.724048
vt 0.973105 0.724052
vt 0.590010 0.742147
vt 0.586670 0.740735
vt 0.396406 0.670834
vt 0.392793 0.670835
vt 0.625786 0.573985
vt 0.627542 0.571695
vt 0.538758 0.656878
vt 0.536664 0.659967
vt 0.536664 0.758340
vt 0.538758 0.759484
vt 0.536664 0.767566
vt 0.538758 0.769107
vt 0.619703 0.446625
vt 0.617609 0.443533
vt 0.979393 0.279597
vt 0.975747 0.279594
vt 0.975747 0.377967
vt 0.979393 0.377970
vt 0.979393 0.269660
vt 0.975747 0.270368
vt 0.714129 0.914713
vt 0.717902 0.914712
vt 0.717902 0.816338
vt 0.714129 0.816339
vt 0.973105 0.683796
vt 0.976878 0.683801
vt 0.976878 0.585435
vt 0.973105 0.585431
vt 1.000000 0.525806
vt 0.996215 0.525601
vt 0.996215 0.533522
vt 1.000000 0.533727
vt 0.973105 0.712015
vt 0.976878 0.712020
vt 0.600980 0.775440
vt 0.600050 0.759219
vt 0.412894 0.986347
vt 0.412894 0.970659
vt 0.406981 0.970677
vt 0.405036 0.986372
vt 0.312765 0.814614
vt 0.310930 0.814617
vt 0.310930 0.845540
vt 0.312765 0.845536
vt 0.312765 0.706909
vt 0.310930 0.706912
vt 0.998068 0.311762
vt 0.994284 0.311557
vt 0.994284 0.315240
vt 0.998068 0.315445
vt 0.533018 0.768274
vt 0.534955 0.769846
vt 0.998037 0.570122
vt 0.994420 0.569878
vt 0.994420 0.573719
vt 0.998037 0.573964
vt 0.714969 0.926717
vt 0.719571 0.927615
vt 0.705804 0.925446
vt 0.931183 0.745241
vt 0.924457 0.748554
vt 0.924541 0.756343
vt 0.931598 0.753653
vt 0.938846 0.755068
vt 0.938846 0.746738
vt 0.928931 0.642683
vt 0.936770 0.642689
vt 0.936770 0.544315
vt 0.928931 0.544309
vt 0.928931 0.670903
vt 0.936770 0.669380
vt 1.000000 0.505872
vt 0.996215 0.505667
vt 0.646365 0.569985
vt 0.647273 0.567861
vt 0.596795 0.722494
vt 0.593455 0.721082
vt 0.994420 0.611587
vt 0.998037 0.611831
vt 0.497083 0.775258
vt 0.497474 0.777130
vt 0.994284 0.351545
vt 0.998068 0.351750
vt 0.932644 0.774822
vt 0.938846 0.776032
vt 0.924754 0.775947
vt 0.785227 0.407151
vt 0.786827 0.439539
vt 0.791429 0.440436
vt 0.791429 0.408361
vt 0.777337 0.408275
vt 0.777662 0.438268
vt 0.994420 0.768003
vt 0.998204 0.768208
vt 0.998204 0.737709
vt 0.994420 0.737503
vt 0.636374 0.881246
vt 0.634462 0.881272
vt 0.634462 0.912025
vt 0.636374 0.913321
vt 0.998230 0.000245
vt 0.994613 0.000000
vt 0.994613 0.031811
vt 0.998230 0.032056
vn 0.0000 -0.3393 0.9407
vn -0.0003 0.7069 0.7073
vn 0.0001 0.0045 1.0000
vn -0.0002 0.0045 1.0000
vn 0.0004 0.7073 0.7068
vn -0.0006 0.3423 0.9396
vn -0.0001 0.3451 0.9385
vn -0.0001 0.1646 0.9864
vn -0.0004 0.1636 0.9865
vn -0.0005 0.3678 0.9299
vn -0.0001 0.4261 0.9047
vn -0.0007 0.1627 0.9867
vn -0.5330 0.1360 0.8351
vn -0.6380 0.1548 0.7543
vn -0.0005 0.0045 1.0000
vn 0.0011 0.7065 0.7077
vn 0.0008 0.6995 0.7146
vn -0.0005 0.6998 0.7143
vn -0.0020 0.6953 0.7187
vn -0.0002 0.9113 -0.4117
vn -0.0016 0.9995 0.0294
vn -0.0000 -0.3201 0.9474
vn -0.0001 -0.3201 0.9474
vn 0.0000 -0.3200 0.9474
vn 0.0007 0.7460 -0.6659
vn 0.0000 0.0088 0.9999
vn 0.0000 0.0000 1.0000
vn 0.0002 0.0088 0.9999
vn -0.0000 0.0090 0.9999
vn -0.0001 0.6992 0.7149
vn -0.0001 0.7121 0.7020
vn 0.0001 0.7367 -0.6762
vn -0.0002 0.7133 0.7009
vn -0.0002 0.9033 -0.4290
vn -0.0005 1.0000 0.0065
vn -0.3706 0.1555 0.9156
vn 0.0138 0.7257 0.6878
vn 0.0003 0.7266 0.6871
vn -0.0028 -0.3059 0.9520
vn 0.2622 0.4786 0.8379
vn 0.5579 0.4394 0.7040
vn 0.5792 0.6248 0.5235
vn 0.3571 0.6978 0.6209
vn -0.0000 0.7266 0.6870
vn -0.0003 -0.3311 0.9436
vn -0.8475 0.2022 0.4907
vn -0.9635 -0.2512 0.0926
vn 0.0008 0.5903 0.8072
vn 0.0003 0.5901 0.8073
vn 0.2897 0.2155 0.9325
vn 0.5192 0.2486 0.8177
vn -0.6717 -0.0186 0.7405
vn -0.0020 -0.6182 0.7860
vn -0.5066 -0.5466 0.6667
vn -0.0002 0.5902 0.8072
vn -0.2950 0.3959 0.8696
vn -0.0008 0.8005 0.5993
vn -0.6425 0.0049 0.7662
vn -0.7043 -0.0209 0.7096
vn -0.0002 -0.8767 0.4809
vn -0.6950 -0.0118 0.7189
vn 0.0000 -0.4312 0.9022
vn -0.0000 -0.3480 0.9375
vn -0.3486 0.0488 0.9360
vn 0.0001 0.6730 0.7396
vn -0.0014 0.1392 0.9903
vn -0.0014 -0.3230 0.9464
vn 0.0001 -0.6727 0.7399
vn 0.0001 0.1360 0.9907
vn -0.8969 -0.1219 0.4250
vn -0.6356 -0.0231 0.7716
vn -0.0010 0.7813 0.6241
vn 0.0001 0.8006 0.5991
vn -0.8446 -0.0660 0.5313
vn -0.6124 0.5918 0.5240
vn -0.9618 -0.2648 0.0696
vn -0.9134 0.3731 0.1621
vn -0.0141 0.9880 0.1535
vn 0.2614 0.6074 0.7501
vn -0.7037 -0.0355 0.7096
vn -0.7090 -0.0390 0.7041
vn 0.3251 0.2096 0.9221
vn -0.6089 -0.0007 0.7932
vn 0.5251 0.2397 0.8166
vn 0.6107 0.2576 0.7487
vn 0.5980 0.2516 0.7609
vn 0.3737 0.2275 0.8992
vn -0.0005 0.1560 0.9877
vn 0.0001 0.1575 0.9875
vn -0.8330 -0.0719 0.5485
vn -0.9826 -0.1729 0.0671
vn -0.5801 0.0112 0.8145
vn -0.7076 -0.0307 0.7059
vn -0.7182 -0.0344 0.6949
vn -0.6860 -0.0240 0.7272
vn -0.9815 -0.1868 0.0414
vn 0.3591 0.2160 0.9080
vn 0.5901 0.2478 0.7683
vn 0.3422 0.2127 0.9152
vn 0.3168 0.2083 0.9253
vn -0.7124 -0.0336 0.7009
vn -0.5892 0.0065 0.8079
vn 0.5590 0.2439 0.7924
vn -0.7131 -0.0322 0.7003
vn -0.9819 -0.1873 0.0266
vn -0.5808 0.0109 0.8139
vn -0.6952 -0.0263 0.7183
vn -0.8454 -0.0847 0.5273
usemtl Material.004
s 1
f 62/1/1 36/2/1 38/3/1 64/4/1
f 63/5/1 37/6/1 36/2/1 62/1/1
usemtl Material.005
f 7/7/2 51/8/3 53/9/4 8/10/5
f 26/11/6 27/12/7 28/13/8 24/14/9
f 29/15/10 22/16/11 27/12/7 26/11/6
f 24/14/9 25/17/12 34/18/13 26/11/6
f 26/11/6 34/18/13 33/19/14 29/15/10
f 8/10/5 53/9/4 52/20/15 18/21/16
f 51/8/3 15/22/17 55/23/18 53/9/4
f 53/9/4 55/23/18 54/24/19 52/20/15
f 55/23/18 113/25/20 112/26/21 54/24/19
f 107/27/1 110/28/22 109/29/23 106/30/1
f 105/31/1 108/32/24 110/28/22 107/27/1
f 15/22/17 111/33/25 113/25/20 55/23/18
f 117/34/26 118/35/27 119/36/27 116/37/28
f 114/38/29 115/39/27 118/35/27 117/34/26
f 116/37/28 124/40/30 125/41/31 117/34/26
f 120/42/32 123/43/33 125/41/31 122/44/34
f 122/44/34 125/41/31 124/40/30 121/45/35
f 111/33/25 120/42/32 122/44/34 113/25/20
f 117/34/26 125/41/31 123/43/33 114/38/29
usemtl Material.001
f 20/46/36 17/47/37 5/48/38 11/49/39
f 10/50/40 12/51/41 14/52/42 4/53/43
f 11/49/39 5/48/38 6/54/44 9/55/45
f 16/56/46 33/57/14 34/58/13 19/59/47
f 18/60/16 31/61/48 23/62/49 8/63/5
f 65/64/50 66/65/51 12/66/41 10/67/40
f 65/64/50 10/67/40 20/68/36 67/69/52
f 11/70/39 32/71/53 35/72/54 20/73/36
f 10/50/40 4/53/43 17/47/37 20/46/36
f 108/74/24 30/75/55 23/76/49 110/77/22
f 33/78/14 43/79/56 41/80/57 29/81/10
f 110/77/22 23/76/49 31/82/48 109/83/23
f 8/63/5 23/62/49 30/84/55 7/85/2
f 76/86/58 77/87/59 33/57/14 16/56/46
f 9/88/45 21/89/60 32/71/53 11/70/39
f 77/90/59 78/91/61 43/79/56 33/78/14
f 21/92/60 39/93/62 42/94/63 32/95/53
f 32/95/53 42/94/63 44/96/64 35/97/54
f 29/81/10 41/80/57 40/98/65 22/99/11
f 71/100/66 48/101/67 45/102/68 70/103/69
f 72/104/70 50/105/71 48/101/67 71/100/66
f 39/106/62 45/107/68 48/108/67 42/109/63
f 41/110/57 47/111/72 46/112/73 40/113/65
f 78/114/61 80/115/74 49/116/75 43/117/56
f 43/118/56 49/119/75 47/111/72 41/110/57
f 19/59/47 58/120/76 56/121/77 16/56/46
f 16/122/46 56/123/77 57/124/78 3/125/79
f 36/126/1 61/127/1 60/128/1 38/129/1
f 37/130/1 59/131/1 61/127/1 36/126/1
f 44/132/64 50/133/71 72/134/70 69/135/80
f 35/97/54 44/96/64 69/136/80 68/137/81
f 20/138/36 35/139/54 68/140/81 67/141/52
f 85/142/82 65/64/50 67/69/52 81/143/83
f 85/142/82 86/144/84 66/65/51 65/64/50
f 3/145/79 13/146/85 74/147/86 73/148/87
f 3/145/79 73/148/87 76/149/58 16/150/46
f 47/151/72 79/152/88 75/153/89 46/154/73
f 49/155/75 80/156/74 79/152/88 47/151/72
f 91/157/90 92/158/91 80/115/74 78/114/61
f 90/159/92 91/160/90 78/91/61 77/90/59
f 89/161/93 90/162/92 77/87/59 76/86/58
f 67/141/52 68/140/81 82/163/94 81/164/83
f 68/137/81 69/136/80 83/165/95 82/166/94
f 69/135/80 72/134/70 84/167/96 83/168/95
f 73/148/87 87/169/97 89/170/93 76/149/58
f 73/148/87 74/147/86 88/171/98 87/169/97
f 99/172/99 97/173/100 93/174/101 101/175/102
f 99/172/99 100/176/103 98/177/103 97/173/100
f 95/178/104 96/179/105 104/180/105 103/181/106
f 94/182/107 95/183/104 103/184/106 102/185/108
f 93/186/101 94/187/107 102/188/108 101/189/102
l 1 2
