# Blender v2.91.2 OBJ File: 'camionnete01.blend'
# www.blender.org
mtllib camionnete_porte2_vitres.mtl
o Cube.006
v -6.227649 5.824152 0.583719
v -1.391408 5.838859 0.581477
v -0.814653 5.824152 0.583719
v -6.227649 1.498405 1.243185
v -1.377710 1.490330 1.244416
v 0.007987 1.498405 1.243185
v -1.385675 4.058487 0.852896
v -0.481952 4.073194 0.850654
v -6.227649 4.073195 0.850654
v -6.227649 2.459795 1.096619
v -1.380858 2.467870 1.095387
v -0.174687 2.459795 1.096619
v -1.385675 4.004362 0.861147
v -0.466126 3.992007 0.863031
v -6.227649 3.992007 0.863031
v -6.227649 2.521086 1.087275
v -1.380858 2.508731 1.089158
v -0.186634 2.521086 1.087275
vn 0.0000 0.1507 0.9886
usemtl Material.002
s 1
f 8//1 3//1 2//1 7//1
f 7//1 2//1 1//1 9//1
f 6//1 12//1 11//1 5//1
f 5//1 11//1 10//1 4//1
f 18//1 14//1 13//1 17//1
f 17//1 13//1 15//1 16//1
