# Blender v2.91.2 OBJ File: 'camionnete01.blend'
# www.blender.org
mtllib camionnete_vitres_porte1.mtl
o Cube.007
v -6.227649 5.824152 -0.310196
v -1.391408 5.838859 -0.307954
v -0.814653 5.824152 -0.310196
v -6.227649 1.498405 -0.969662
v -1.377710 1.490330 -0.970893
v 0.007987 1.498405 -0.969662
v -1.385675 4.058487 -0.579373
v -0.481952 4.073194 -0.577131
v -6.227649 4.073195 -0.577131
v -6.227649 2.459795 -0.823096
v -1.380858 2.467870 -0.821864
v -0.174687 2.459795 -0.823096
v -1.385675 4.004362 -0.587624
v -0.466126 3.992007 -0.589508
v -6.227649 3.992007 -0.589508
v -6.227649 2.521086 -0.813752
v -1.380858 2.508731 -0.815635
v -0.186634 2.521086 -0.813752
vn 0.0000 0.1507 -0.9886
usemtl Material.002
s 1
f 8//1 7//1 2//1 3//1
f 7//1 9//1 1//1 2//1
f 6//1 5//1 11//1 12//1
f 5//1 4//1 10//1 11//1
f 18//1 17//1 13//1 14//1
f 17//1 16//1 15//1 13//1
